# xmcd
#
# Track frame offsets: 
#        150
#        9914
#        21870
#        38785
#        49734
#        60852
#        70518
#        82721
#        93670
#        106434
#
# Disc length: 1553 seconds
#
# Revision: 1
# Processed by: cddbd v1.5.2PL0 Copyright (c) Steve Scherf et al.
# Submitted via: ExactAudioCopyFreeDBPlugin 1.0
#
DISCID=69060f0a
DTITLE=Billie Jo Spears - Just Singing
DYEAR=1971
DGENRE=Country
TTITLE0=Snowbird
TTITLE1=Apartment No. 9
TTITLE2=For The Good Times
TTITLE3=When You've Hurt Me More Than I love You
TTITLE4=Heavenly Sunshine
TTITLE5=Trying To See
TTITLE6=Help Me Make It Through The Night
TTITLE7=I Can't Get Enough Of You
TTITLE8=I Love You Because
TTITLE9=Goin' Steady
EXTD=
EXTT0=
EXTT1=
EXTT2=
EXTT3=
EXTT4=
EXTT5=
EXTT6=
EXTT7=
EXTT8=
EXTT9=
PLAYORDER=
